<svg id="TRACe_PA-Logo" data-name="TRACe PA-Logo" xmlns="http://www.w3.org/2000/svg" width="149.411" height="24" viewBox="0 0 149.411 24">
  <g id="Group_25686" data-name="Group 25686">
    <g id="Group_25677" data-name="Group 25677" transform="translate(39.636 0.168)">
      <g id="Group_25676" data-name="Group 25676" transform="translate(0)">
        <g id="Layer0_0_MEMBER_0_FILL_00000101084445619726021250000008838706862813699745_">
          <path id="Path_75902" data-name="Path 75902" d="M347.989,443.7h-6.683L332.5,467.532h6.116l5.968-16.2,5.989,16.2h6.2Z" transform="translate(-332.5 -443.7)" fill="#fff"/>
        </g>
      </g>
    </g>
    <g id="Group_25679" data-name="Group 25679" transform="translate(21.173 0)">
      <g id="Group_25678" data-name="Group 25678" transform="translate(0)">
        <g id="Layer0_0_MEMBER_1_FILL_00000155855435946754266540000013344928633436702861_">
          <path id="Path_75903" data-name="Path 75903" d="M256.932,443.888a10.761,10.761,0,0,0-4.834-.988h-9.9v24H248V447.8h3.594a3.545,3.545,0,0,1,2.543.8,3.2,3.2,0,0,1,.82,2.27,2.873,2.873,0,0,1-.82,2.228,3.606,3.606,0,0,1-2.543.757h-2.27v3.993l5.464,9.058h6.137l-5.7-9.415a7.347,7.347,0,0,0,4.182-2.522,6.861,6.861,0,0,0,1.45-4.434,7.851,7.851,0,0,0-.988-3.93A6.839,6.839,0,0,0,256.932,443.888Z" transform="translate(-242.2 -442.9)" fill="#fff"/>
        </g>
      </g>
    </g>
    <g id="Group_25681" data-name="Group 25681" transform="translate(0 0.021)">
      <g id="Group_25680" data-name="Group 25680">
        <g id="Layer0_0_MEMBER_2_FILL_00000063609001890077824350000006124562595986628006_">
          <path id="Path_75904" data-name="Path 75904" d="M147.752,466.979h5.821V448.821h6.515V443H141.3v5.821h6.452Z" transform="translate(-141.3 -443)" fill="#fff"/>
        </g>
      </g>
    </g>
    <g id="Group_25683" data-name="Group 25683" transform="translate(62.196 0.168)">
      <g id="Group_25682" data-name="Group 25682">
        <g id="Layer0_0_MEMBER_3_FILL_00000087400647003023380220000016330533589454416547_">
          <path id="Path_75905" data-name="Path 75905" d="M465.1,452.695a11.477,11.477,0,0,0-1.7-3.762,11.36,11.36,0,0,0-1.471-1.744,12.224,12.224,0,0,0-3.615-2.522,11.93,11.93,0,1,0-4.792,22.865,11.693,11.693,0,0,0,4.792-.967,12.183,12.183,0,0,0,3.615-2.543,14.012,14.012,0,0,0,1.492-1.744,10.865,10.865,0,0,0,1.66-3.741H458.56a3.65,3.65,0,0,1-.231.378c-.231.273-.462.567-.736.841a5.593,5.593,0,0,1-1.786,1.24,5.747,5.747,0,0,1-2.354.483,5.848,5.848,0,0,1-5.842-5.863,5.812,5.812,0,0,1,5.842-5.842,5.8,5.8,0,0,1,4.14,1.7,5.714,5.714,0,0,1,.715.883,1.358,1.358,0,0,1,.189.336h6.6Z" transform="translate(-441.6 -443.7)" fill="#fff"/>
        </g>
      </g>
    </g>
    <g id="Group_25685" data-name="Group 25685" transform="translate(87.268 4.96)">
      <g id="Group_25684" data-name="Group 25684">
        <g id="Layer0_0_MEMBER_4_FILL_00000083788804287780590280000011085804366005353608_">
          <path id="Path_75906" data-name="Path 75906" d="M577.882,469.274A9.924,9.924,0,0,0,575,467.257a9.66,9.66,0,0,0-3.846-.757,9.481,9.481,0,0,0-9.436,8.343c-.021.336-.021.651-.021.988a12.741,12.741,0,0,0,.273,2.753,9.228,9.228,0,0,0,2.459,4.161,9.385,9.385,0,0,0,4.96,2.669c.4.042.778.084,1.156.105.21.021.42.021.63.021h.063l.988-.063a9.6,9.6,0,0,0,2.8-.715,9.765,9.765,0,0,0,2.879-2.039,12.182,12.182,0,0,0,1.2-1.408,8.364,8.364,0,0,0,1.24-2.627.229.229,0,0,0,.021-.105h-6.179a2.781,2.781,0,0,1-1.114,1.66,3.465,3.465,0,0,1-2.144.651,3.622,3.622,0,0,1-2.522-.925,4.445,4.445,0,0,1-1.072-3.089h13.3A6.231,6.231,0,0,0,580.7,476a7.647,7.647,0,0,0-.084-1.2,8.944,8.944,0,0,0-1.534-4.14,10.269,10.269,0,0,0-1.2-1.387M571.22,470.7a3.675,3.675,0,0,1,2.543.925,3.358,3.358,0,0,1,1.009,2.8h-7.419a4.014,4.014,0,0,1,1.2-2.8A3.964,3.964,0,0,1,571.22,470.7Z" transform="translate(-561.7 -466.5)" fill="#fff"/>
        </g>
      </g>
    </g>
  </g>
  <g id="Group_25688" data-name="Group 25688" transform="translate(127.912)">
    <g id="Group_25687" data-name="Group 25687" transform="translate(0 0)">
      <g id="Layer0_0_MEMBER_5_MEMBER_0_FILL_00000096020669090445846060000000264935707436023942_">
        <path id="Path_75907" data-name="Path 75907" d="M765.646,442.9h-3.489l-9.058,24h3.341l7.461-19.776,7.377,19.776h3.32Z" transform="translate(-753.1 -442.9)" fill="#33c5f3"/>
      </g>
    </g>
  </g>
  <g id="Group_25690" data-name="Group 25690" transform="translate(114.189)">
    <g id="Group_25689" data-name="Group 25689" transform="translate(0 0)">
      <g id="Layer0_0_MEMBER_5_MEMBER_1_FILL_00000001632341655077247660000010431174151746549632_">
        <path id="Path_75908" data-name="Path 75908" d="M701.544,444.833c-1.387-1.282-3.426-1.933-6.137-1.933H687.8v24h3.089v-9.667h4.518a8.9,8.9,0,0,0,6.074-1.87,7.729,7.729,0,0,0,.063-10.529m-6.431.651a5.834,5.834,0,0,1,4.077,1.2,4.55,4.55,0,0,1,1.219,3.426,4.4,4.4,0,0,1-1.219,3.363,5.8,5.8,0,0,1-4.077,1.2h-4.245v-9.163h4.245Z" transform="translate(-687.8 -442.9)" fill="#33c5f3"/>
      </g>
    </g>
  </g>
</svg>
